General
Format                         : MPEG-4
Format profile                 : Base Media / Version 2
Codec ID                       : mp42
File size                      : 3.55 GiB
Duration                       : 1h 40mn
Overall bit rate mode          : Variable
Overall bit rate               : 5 057 Kbps
Encoded date                   : UTC 2013-06-18 16:51:07
Tagged date                    : UTC 2013-06-18 16:51:07
Writing application            : FormatFactory : www.pcfreetime.com

Video
ID                             : 201
Format                         : MPEG-4 Visual
Format profile                 : Simple@L1
Format settings, BVOP          : No
Format settings, QPel          : No
Format settings, GMC           : No warppoints
Format settings, Matrix        : Default (H.263)
Codec ID                       : 20
Duration                       : 1h 40mn
Bit rate mode                  : Variable
Bit rate                       : 4 930 Kbps
Maximum bit rate               : 53.1 Mbps
Width                          : 1 240 pixels
Height                         : 696 pixels
Display aspect ratio           : 16:9
Original display aspect ratio  : 16:9
Frame rate mode                : Constant
Frame rate                     : 23.976 fps
Color space                    : YUV
Chroma subsampling             : 4:2:0
Bit depth                      : 8 bits
Scan type                      : Progressive
Compression mode               : Lossy
Bits/(Pixel*Frame)             : 0.238
Stream size                    : 3.46 GiB (97%)
Writing library                : Lavc53.8.0
Encoded date                   : UTC 2013-06-18 16:51:07
Tagged date                    : UTC 2013-06-18 16:53:50

Audio
ID                             : 101
Format                         : AAC
Format/Info                    : Advanced Audio Codec
Format profile                 : LC
Codec ID                       : 40
Duration                       : 1h 40mn
Bit rate mode                  : Variable
Bit rate                       : 126 Kbps
Maximum bit rate               : 175 Kbps
Channel(s)                     : 2 channels
Channel positions              : Front: L R
Sampling rate                  : 44.1 KHz
Compression mode               : Lossy
Stream size                    : 90.3 MiB (2%)
Encoded date                   : UTC 2013-06-18 16:53:34
Tagged date                    : UTC 2013-06-18 16:53:50
